<svg width="16" height="16" viewBox="0 0 16 16" fill="none" xmlns="http://www.w3.org/2000/svg">
<path opacity="0.5" d="M4.87766 3.42855C5.30939 3.42855 5.65938 3.07431 5.65938 2.63734C5.65938 2.20037 5.30939 1.84613 4.87766 1.84613C4.44593 1.84613 4.09595 2.20037 4.09595 2.63734C4.09595 3.07431 4.44593 3.42855 4.87766 3.42855Z" fill="white"/>
<path d="M7.65707 2.37362C7.99286 2.37362 8.26507 2.0981 8.26507 1.75824C8.26507 1.41837 7.99286 1.14285 7.65707 1.14285C7.32128 1.14285 7.04907 1.41837 7.04907 1.75824C7.04907 2.0981 7.32128 2.37362 7.65707 2.37362Z" fill="url(#paint0_linear_514_33229)"/>
<path d="M10.2627 2.72525C10.5025 2.72525 10.6969 2.52845 10.6969 2.28569C10.6969 2.04293 10.5025 1.84613 10.2627 1.84613C10.0228 1.84613 9.82837 2.04293 9.82837 2.28569C9.82837 2.52845 10.0228 2.72525 10.2627 2.72525Z" fill="white" fill-opacity="0.465527"/>
<path opacity="0.607422" d="M2.70623 6.41757C3.28186 6.41757 3.74851 5.94525 3.74851 5.36262C3.74851 4.77999 3.28186 4.30768 2.70623 4.30768C2.13059 4.30768 1.66394 4.77999 1.66394 5.36262C1.66394 5.94525 2.13059 6.41757 2.70623 6.41757Z" fill="white"/>
<path opacity="0.74974" d="M8.00439 14.8571C8.628 14.8571 9.13353 14.3455 9.13353 13.7143C9.13353 13.0831 8.628 12.5714 8.00439 12.5714C7.38078 12.5714 6.87524 13.0831 6.87524 13.7143C6.87524 14.3455 7.38078 14.8571 8.00439 14.8571Z" fill="white"/>
<path opacity="0.774414" d="M4.35645 13.6264C5.07599 13.6264 5.6593 13.036 5.6593 12.3077C5.6593 11.5794 5.07599 10.989 4.35645 10.989C3.6369 10.989 3.05359 11.5794 3.05359 12.3077C3.05359 13.036 3.6369 13.6264 4.35645 13.6264Z" fill="white"/>
<path opacity="0.69847" d="M2.18511 10.2857C2.76075 10.2857 3.22739 9.81339 3.22739 9.23076C3.22739 8.64813 2.76075 8.17581 2.18511 8.17581C1.60947 8.17581 1.14282 8.64813 1.14282 9.23076C1.14282 9.81339 1.60947 10.2857 2.18511 10.2857Z" fill="white"/>
<path opacity="0.659505" d="M11.5894 13.1471C12.0822 13.1471 12.4818 12.7427 12.4818 12.2439C12.4818 11.745 12.0822 11.3407 11.5894 11.3407C11.0965 11.3407 10.697 11.745 10.697 12.2439C10.697 12.7427 11.0965 13.1471 11.5894 13.1471Z" fill="white"/>
<path opacity="0.555599" d="M13.3214 10.3233C13.7154 10.3233 14.0348 10 14.0348 9.60123C14.0348 9.20242 13.7154 8.87912 13.3214 8.87912C12.9273 8.87912 12.6079 9.20242 12.6079 9.60123C12.6079 10 12.9273 10.3233 13.3214 10.3233Z" fill="white"/>
<path opacity="0.3" d="M12.2743 4.51164C12.5698 4.51164 12.8093 4.26918 12.8093 3.9701C12.8093 3.67101 12.5698 3.42856 12.2743 3.42856C11.9788 3.42856 11.7393 3.67101 11.7393 3.9701C11.7393 4.26918 11.9788 4.51164 12.2743 4.51164Z" fill="white"/>
<path opacity="0.388867" d="M13.3896 7.12088C13.7254 7.12088 13.9976 6.84536 13.9976 6.50549C13.9976 6.16562 13.7254 5.89011 13.3896 5.89011C13.0538 5.89011 12.7816 6.16562 12.7816 6.50549C12.7816 6.84536 13.0538 7.12088 13.3896 7.12088Z" fill="white"/>
<defs>
<linearGradient id="paint0_linear_514_33229" x1="8.25057" y1="1.75824" x2="6.29677" y2="2.23494" gradientUnits="userSpaceOnUse">
<stop stop-color="#CCEEDC" stop-opacity="0.514259"/>
<stop offset="1" stop-color="white"/>
</linearGradient>
</defs>
</svg>
