<svg width="72" height="72" viewBox="0 0 72 72" fill="none" xmlns="http://www.w3.org/2000/svg">
<circle cx="36" cy="36" r="30" fill="#E76B38"/>
<path d="M38.4279 36.4207L47.3597 27.4835C47.6265 27.2167 47.7735 26.8607 47.7735 26.4829C47.7735 26.1052 47.6265 25.7505 47.3603 25.4837C46.826 24.9494 45.8942 24.9494 45.3619 25.4837L36.4287 34.4209L27.497 25.4837C26.9633 24.9494 26.0308 24.9507 25.4992 25.4837C25.2324 25.7492 25.084 26.1052 25.084 26.4836C25.084 26.8607 25.2324 27.2167 25.4992 27.4835L34.431 36.4207L25.4992 45.3593C25.2324 45.6262 25.084 45.9808 25.084 46.3579C25.084 46.7363 25.2324 47.091 25.4992 47.3592C26.0492 47.9085 26.9456 47.9085 27.497 47.3578L36.4287 38.4206L45.3605 47.3578C45.6287 47.6253 45.9833 47.7723 46.3611 47.7723C46.7382 47.7723 47.0935 47.6253 47.3597 47.3578C47.6265 47.091 47.7735 46.7363 47.7735 46.3579C47.7735 45.9808 47.6265 45.6248 47.3597 45.3593L38.4279 36.4207Z" fill="#FCFCFC"/>
<circle cx="36" cy="36" r="30.5" stroke="#E76B38"/>
</svg>
